<svg width="10" height="16" viewBox="0 0 10 16" fill="none" xmlns="http://www.w3.org/2000/svg">
<path d="M5.88867 10.6543H3.39844C3.40495 10.0684 3.45052 9.5638 3.53516 9.14062C3.6263 8.71094 3.7793 8.32357 3.99414 7.97852C4.21549 7.63346 4.50846 7.29167 4.87305 6.95312C5.17904 6.67969 5.44596 6.41927 5.67383 6.17188C5.90169 5.92448 6.08073 5.67057 6.21094 5.41016C6.34115 5.14323 6.40625 4.84701 6.40625 4.52148C6.40625 4.14388 6.34766 3.83138 6.23047 3.58398C6.11979 3.33008 5.95052 3.13802 5.72266 3.00781C5.5013 2.8776 5.22135 2.8125 4.88281 2.8125C4.60286 2.8125 4.34245 2.87435 4.10156 2.99805C3.86068 3.11523 3.66211 3.29753 3.50586 3.54492C3.35612 3.79232 3.27799 4.11784 3.27148 4.52148H0.439453C0.458984 3.62956 0.664062 2.89388 1.05469 2.31445C1.45182 1.72852 1.98242 1.29557 2.64648 1.01562C3.31055 0.729167 4.05599 0.585938 4.88281 0.585938C5.79427 0.585938 6.57552 0.735677 7.22656 1.03516C7.8776 1.32812 8.37565 1.76107 8.7207 2.33398C9.06576 2.90039 9.23828 3.59049 9.23828 4.4043C9.23828 4.9707 9.1276 5.47526 8.90625 5.91797C8.6849 6.35417 8.39518 6.76107 8.03711 7.13867C7.67904 7.51628 7.28516 7.9069 6.85547 8.31055C6.48438 8.64258 6.23047 8.99089 6.09375 9.35547C5.96354 9.72005 5.89518 10.153 5.88867 10.6543ZM3.10547 13.6719C3.10547 13.2552 3.2487 12.9102 3.53516 12.6367C3.82161 12.3568 4.20573 12.2168 4.6875 12.2168C5.16276 12.2168 5.54362 12.3568 5.83008 12.6367C6.12305 12.9102 6.26953 13.2552 6.26953 13.6719C6.26953 14.0755 6.12305 14.4173 5.83008 14.6973C5.54362 14.9772 5.16276 15.1172 4.6875 15.1172C4.20573 15.1172 3.82161 14.9772 3.53516 14.6973C3.2487 14.4173 3.10547 14.0755 3.10547 13.6719Z" fill="#B1B1B1"/>
</svg>
